<svg width="120" height="40" viewBox="0 0 120 40" fill="none" xmlns="http://www.w3.org/2000/svg">
<path d="M0 28.4418L10.0891 11.7795L15.5491 19.9876L20.8424 11.7795L30.9237 28.3692L25.7242 31.7934L20.5064 23.6837L15.7263 30.5372L10.7586 23.6837L5.63717 31.7934L0 28.4418Z" fill="#231815"/>
<path d="M32.3721 10.355V31.6276H39.3821V10.355H32.3721Z" fill="#231815"/>
<path d="M43.9092 12.782V31.5448H59.9663V25.2689H51.1771V12.8649L43.9092 12.782Z" fill="#231815"/>
<path d="M58.0889 15.5533V22.3317H64.0803V31.6276H70.7334V10.355H64.0803V15.5533H58.0889Z" fill="#231815"/>
<path d="M73.7285 10.355V31.6276H80.3087V10.355H73.7285Z" fill="#231815"/>
<path d="M119.949 11.8832C119.928 11.8832 119.915 11.8676 119.92 11.8469L119.876 10.8989C119.855 10.8989 119.842 10.8834 119.842 10.8627L119.696 9.82662C119.675 9.82662 119.66 9.80849 119.662 9.78777C119.662 9.78777 119.676 9.50026 119.673 9.32931C119.673 9.30859 119.6 9.19981 119.6 9.19981C119.59 9.18167 119.597 9.16873 119.616 9.16873H119.634C119.655 9.16873 119.67 9.1506 119.673 9.13247L119.678 8.87346C119.678 8.85274 119.66 8.83719 119.642 8.83719H119.631C119.61 8.83719 119.595 8.82165 119.595 8.80093V8.79575C119.595 8.77503 119.61 8.75949 119.631 8.75949H119.642C119.662 8.75949 119.686 8.74395 119.696 8.72582L119.774 8.55228C119.782 8.53415 119.782 8.50307 119.774 8.48494L119.621 7.89439C119.616 7.87366 119.629 7.85813 119.649 7.85813H119.675C119.696 7.85813 119.712 7.84 119.715 7.81928L119.566 7.29089C119.548 7.28053 119.517 7.28053 119.498 7.2883L119.313 7.22873C119.295 7.2365 119.295 7.24168 119.313 7.24168H119.324C119.345 7.24168 119.355 7.22614 119.347 7.20542L119.123 6.5294C119.113 6.51127 119.102 6.48277 119.105 6.46205V6.29629C119.105 6.27557 119.092 6.25744 119.071 6.25744H119.045C119.024 6.25744 119.016 6.2393 119.024 6.22117L119.056 5.84302C119.035 5.84302 119.016 5.82747 119.011 5.80675L118.936 5.46227C118.933 5.44155 118.912 5.42601 118.894 5.42601H118.86C118.839 5.42601 118.831 5.41306 118.842 5.39493L118.91 5.29392C118.92 5.27579 118.912 5.26024 118.894 5.26024H118.873C118.852 5.25506 118.837 5.23693 118.837 5.21621V5.13851C118.837 5.11779 118.818 5.10224 118.798 5.10224H118.787C118.766 5.10224 118.748 5.08671 118.746 5.06598L118.67 4.39255C118.67 4.37183 118.652 4.34853 118.634 4.34076L118.506 4.28377C118.488 4.276 118.472 4.25269 118.472 4.23197V4.0662C118.469 4.04548 118.451 4.02994 118.433 4.02994H118.428C118.407 4.02994 118.391 4.01439 118.391 3.99367L118.396 3.63624C118.396 3.61552 118.381 3.59998 118.36 3.59998H118.344C118.324 3.59998 118.308 3.58444 118.308 3.56372V3.32283C118.305 3.30211 118.29 3.27881 118.271 3.27104L118.149 3.21146C118.131 3.20369 118.131 3.19851 118.149 3.19851C118.149 3.19851 118.097 2.98094 118.107 2.98612C118.12 2.98871 118.113 2.99648 118.094 2.99907L118.073 3.00426C118.053 3.00685 118.034 2.99389 118.029 2.97576L118.019 2.8877C118.014 2.86698 117.993 2.85402 117.974 2.85402H117.956C117.935 2.85661 117.922 2.84107 117.925 2.82294L117.909 2.36709C117.909 2.34636 117.899 2.33341 117.878 2.33859H117.86C117.839 2.34636 117.808 2.34377 117.789 2.33859L117.615 2.1003C117.594 2.09512 117.563 2.08476 117.545 2.07958L117.417 2.05109C117.396 2.04591 117.375 2.02519 117.37 2.00706L117.357 1.91899C117.352 1.89827 117.339 1.86978 117.326 1.85424L117.279 1.79726C117.266 1.78172 117.248 1.75582 117.235 1.73769L117.089 1.4191C117.086 1.39838 117.068 1.37248 117.052 1.35953C117.052 1.35953 116.513 0.903669 116.336 0.844097C116.156 0.787114 115.987 1.12642 115.987 1.12642C115.976 1.14455 115.969 1.17563 115.969 1.19635L115.956 1.53825C115.956 1.55897 115.937 1.57969 115.919 1.58228L115.898 1.58746C115.877 1.59264 115.87 1.61077 115.877 1.6289L115.997 1.86719C116.005 1.88532 115.997 1.90863 115.984 1.92159L115.877 1.98893C115.859 1.99929 115.849 2.02519 115.854 2.04332L115.867 2.13915C115.867 2.15988 115.857 2.18578 115.841 2.19614L115.732 2.27125C115.716 2.2842 115.706 2.3101 115.711 2.32823L115.734 2.40594C115.737 2.42666 115.724 2.44738 115.706 2.45256L115.685 2.45774C115.664 2.46292 115.653 2.48364 115.656 2.50436L115.732 2.91619C115.734 2.93691 115.721 2.95763 115.703 2.96281H115.692C115.674 2.97058 115.661 2.9913 115.664 3.01203L115.729 3.34874C115.734 3.36946 115.721 3.385 115.7 3.385H115.664C115.643 3.385 115.63 3.40572 115.635 3.42385L115.669 3.5948C115.674 3.61552 115.659 3.63106 115.64 3.63365H115.607C115.586 3.63624 115.573 3.65437 115.575 3.67509L115.661 4.02217C115.666 4.04289 115.653 4.06102 115.633 4.06361L115.604 4.06879C115.583 4.07138 115.565 4.08951 115.562 4.11023L115.547 4.69041C115.541 4.71114 115.552 4.72409 115.573 4.72409H115.593C115.614 4.72409 115.63 4.73963 115.63 4.76035V4.77589C115.63 4.79661 115.614 4.81215 115.593 4.81215H115.573C115.552 4.81215 115.536 4.83029 115.536 4.84842L115.505 6.32996C115.505 6.35068 115.505 6.38176 115.505 6.40248L115.487 7.22614C115.487 7.24686 115.502 7.2624 115.523 7.26499H115.544C115.565 7.26499 115.58 7.28571 115.58 7.30384V7.39709C115.58 7.41781 115.565 7.43335 115.547 7.43335H115.51C115.489 7.43335 115.481 7.44889 115.492 7.46702L115.557 7.56285C115.567 7.58098 115.557 7.59652 115.536 7.59652H115.513C115.492 7.59652 115.476 7.61466 115.476 7.63279V7.64056C115.476 7.66128 115.495 7.682 115.513 7.68459L115.552 7.81409C115.562 7.83222 115.554 7.84518 115.536 7.84518H115.51C115.489 7.84518 115.474 7.86331 115.474 7.88144V8.37615C115.471 8.39687 115.455 8.41241 115.435 8.41241H115.411C115.39 8.41241 115.375 8.43055 115.372 8.45127L115.367 8.71286C115.367 8.73358 115.349 8.74913 115.328 8.74654H115.304C115.284 8.74654 115.268 8.75949 115.268 8.78021L115.26 9.19463C115.26 9.21535 115.244 9.23089 115.224 9.23089H115.198C115.177 9.23089 115.161 9.24902 115.161 9.26974V9.44068C115.161 9.4614 115.179 9.47695 115.2 9.47695H115.213C115.234 9.47695 115.242 9.4899 115.231 9.50803L115.185 9.65567C115.164 9.65049 115.148 9.66603 115.148 9.68416L115.135 10.0235C115.135 10.0442 115.117 10.0597 115.096 10.0597H115.088C115.067 10.0597 115.049 10.0779 115.046 10.096L115.039 10.1789C115.039 10.1996 115.023 10.2151 115.002 10.2151H114.979C114.958 10.2151 114.945 10.2333 114.95 10.2514L115.026 10.6762C115.028 10.6969 115.015 10.7124 114.994 10.7124H114.981C114.96 10.7124 114.945 10.7306 114.942 10.7487L114.937 10.9196C114.937 10.9404 114.921 10.9559 114.901 10.9559H114.864C114.843 10.9559 114.828 10.9714 114.828 10.9896L114.822 11.4921C114.822 11.5128 114.804 11.5283 114.786 11.5283H114.776C114.755 11.5283 114.739 11.5465 114.739 11.5646L114.731 11.6604C114.731 11.6811 114.71 11.6967 114.69 11.6967H114.658C114.637 11.6967 114.619 11.7148 114.617 11.7329L114.515 12.3908C114.512 12.4115 114.494 12.4349 114.476 12.4426L114.359 12.497C114.341 12.5048 114.325 12.5281 114.325 12.5488L114.314 13.1264C114.314 13.1471 114.299 13.1627 114.278 13.1627H114.262C114.242 13.1627 114.218 13.1782 114.21 13.1964L114.135 13.3699C114.127 13.388 114.137 13.4036 114.158 13.4036H114.187C114.208 13.4036 114.223 13.4217 114.223 13.4398L114.205 13.7014C114.205 13.7221 114.187 13.7455 114.169 13.7532L114.049 13.805C114.031 13.8128 114.012 13.8361 114.007 13.8568L113.835 14.766C113.83 14.7867 113.812 14.8022 113.793 14.8022C113.775 14.8022 113.76 14.8178 113.757 14.8385L113.736 14.9214C113.736 14.9421 113.728 14.9732 113.723 14.9939L113.681 15.1364C113.676 15.1571 113.668 15.1882 113.663 15.2089L113.64 15.5093C113.64 15.5301 113.622 15.5456 113.601 15.5456H113.572C113.551 15.5456 113.536 15.5637 113.533 15.5844V15.8227C113.528 15.8435 113.512 15.859 113.491 15.859H113.468C113.447 15.859 113.429 15.8771 113.429 15.8953L113.421 16.1517C113.421 16.1724 113.403 16.1879 113.382 16.1879H113.358C113.338 16.1879 113.312 16.2035 113.299 16.219L113.189 16.5143C113.179 16.5324 113.166 16.5609 113.16 16.5816L113.085 16.6593C113.08 16.6775 113.077 16.7111 113.077 16.7319L113.069 16.9883C113.069 17.009 113.051 17.0245 113.03 17.0245H113.007C112.986 17.0245 112.973 17.0401 112.975 17.0608L113.054 17.2525C113.059 17.2732 113.046 17.2887 113.025 17.2887H112.996C112.976 17.2887 112.957 17.3069 112.957 17.3276V17.4234C112.952 17.4441 112.936 17.4571 112.916 17.4545H112.897C112.877 17.4493 112.856 17.4649 112.853 17.483L112.78 17.8275C112.775 17.8456 112.754 17.8637 112.736 17.8637H112.715C112.694 17.8637 112.681 17.8819 112.684 17.9L112.744 18.3196C112.751 18.3377 112.741 18.361 112.723 18.3714L112.501 18.4983C112.483 18.5087 112.468 18.5346 112.468 18.5527L112.452 18.892C112.452 18.9127 112.434 18.9283 112.413 18.9283H112.397C112.376 18.9283 112.361 18.9464 112.361 18.9645V19.1277C112.361 19.1484 112.342 19.164 112.322 19.164H112.296C112.275 19.164 112.259 19.1821 112.259 19.2028V19.2909C112.259 19.3116 112.243 19.3272 112.223 19.3272H112.189C112.168 19.3272 112.163 19.3401 112.176 19.3556L112.147 19.7001C112.142 19.7209 112.121 19.7364 112.103 19.7364H112.085C112.064 19.7364 112.051 19.7545 112.053 19.7727L112.142 20.1974C112.145 20.2182 112.134 20.2389 112.113 20.2492L111.978 20.301C111.96 20.3114 111.949 20.3321 111.957 20.3528L112.019 20.6973C112.033 20.7129 112.027 20.7258 112.006 20.7258H111.97C111.949 20.7258 111.931 20.7439 111.928 20.7647L111.835 21.5106C111.835 21.5313 111.814 21.5469 111.793 21.5469H111.767C111.746 21.5469 111.73 21.565 111.73 21.5857V21.7645C111.733 21.7852 111.717 21.8007 111.696 21.7981H111.668C111.647 21.7929 111.629 21.8085 111.624 21.8292L111.527 22.4172C111.525 22.4379 111.506 22.4586 111.485 22.4638L111.353 22.5182C111.334 22.5234 111.316 22.5441 111.316 22.5648L111.308 23.4014C111.308 23.4221 111.29 23.4351 111.272 23.4325H111.248C111.228 23.4273 111.212 23.4428 111.212 23.461L111.207 23.6449C111.207 23.6656 111.188 23.6811 111.168 23.6811H111.155C111.134 23.6811 111.116 23.6967 111.11 23.7174L111.014 24.3002C111.011 24.3209 110.991 24.3364 110.972 24.3364H110.951C110.931 24.3364 110.912 24.3546 110.912 24.3727L110.899 24.6265C110.899 24.6472 110.884 24.6628 110.863 24.6628H110.852C110.832 24.6628 110.816 24.6783 110.816 24.6991L110.808 24.8312C110.808 24.8519 110.8 24.8855 110.798 24.9037L110.519 26.2143C110.514 26.235 110.511 26.2635 110.511 26.279C110.511 26.2946 110.503 26.3334 110.496 26.3334C110.485 26.3334 110.483 26.3179 110.485 26.2972L110.738 25.1161C110.743 25.0953 110.733 25.0798 110.72 25.0824C110.704 25.0824 110.665 25.072 110.654 25.0539L110.605 24.9658C110.595 24.9503 110.568 24.9322 110.548 24.927L110.149 25.0435C110.128 25.0487 110.105 25.0384 110.097 25.0202L110.048 24.927C110.037 24.9089 110.014 24.8959 109.993 24.8985L109.451 24.971C109.43 24.9736 109.401 24.9658 109.386 24.9529L109.305 24.8881C109.289 24.8752 109.261 24.8726 109.24 24.8778L109.037 24.9658C109.019 24.9762 108.99 24.971 108.974 24.9607L108.867 24.8855C108.849 24.8752 108.826 24.8804 108.81 24.8959L108.727 24.9917C108.714 25.0073 108.696 25.0047 108.685 24.9866L108.675 24.9684C108.664 24.9503 108.643 24.9425 108.625 24.9529L108.524 25.0047C108.505 25.0125 108.482 25.0047 108.474 24.9866L108.464 24.9684C108.453 24.9503 108.432 24.9425 108.414 24.9529L108.323 25.0021C108.305 25.0125 108.276 25.0125 108.26 25.0021L108.143 24.9244C108.128 24.914 108.099 24.9114 108.078 24.9192L107.789 25.0409C107.771 25.0487 107.747 25.0409 107.737 25.0228V25.0176C107.726 24.9995 107.703 24.9917 107.682 24.9969L107.591 25.0358C107.573 25.0461 107.549 25.0384 107.539 25.0228L107.531 25.0125C107.521 24.9943 107.495 24.984 107.476 24.9891L106.724 25.1912C106.703 25.1964 106.682 25.186 106.674 25.1679L106.666 25.1523C106.658 25.1342 106.635 25.1212 106.617 25.1238L103.215 25.7221C103.194 25.7247 103.173 25.7118 103.165 25.6937L103.157 25.6755C103.15 25.6574 102.886 25.6185 102.881 25.5978V25.5901C102.876 25.5693 102.855 25.559 102.837 25.5616L102.631 25.6185C102.61 25.6237 102.592 25.6108 102.587 25.5901L102.582 25.5667C102.576 25.546 102.558 25.5357 102.537 25.5408L102.425 25.5771C102.407 25.5823 102.384 25.5719 102.376 25.5538L102.371 25.5408C102.363 25.5227 102.342 25.5098 102.321 25.5149L101.941 25.616C101.92 25.6211 101.902 25.6082 101.897 25.5901L101.891 25.5667C101.886 25.5486 101.868 25.5383 101.847 25.546L101.391 25.7429C101.373 25.7506 101.355 25.7429 101.349 25.7221V25.7118C101.342 25.6911 101.323 25.6807 101.305 25.6885L101.026 25.7662C101.008 25.7739 100.99 25.761 100.987 25.7429V25.7273C100.982 25.7066 100.964 25.6962 100.943 25.6988L100.547 25.7843C100.526 25.7895 100.508 25.7765 100.503 25.7558V25.7429C100.495 25.7221 100.477 25.717 100.461 25.7299L100.357 25.8128C100.341 25.8258 100.323 25.8206 100.315 25.8024L100.307 25.7791C100.3 25.761 100.279 25.748 100.261 25.7532L99.5025 25.919C99.4817 25.9242 99.4583 25.9112 99.4505 25.8931L99.2082 25.8983C99.1874 25.8983 99.1743 25.9112 99.1795 25.9294L99.1847 25.9527C99.1873 25.9734 99.1743 25.9915 99.1561 25.9941H99.1352C99.1144 25.9993 99.0962 25.9863 99.091 25.9656V25.9501C99.0832 25.9294 99.0649 25.9164 99.0441 25.9164L97.851 26.0848C97.8302 26.0848 97.8093 26.0718 97.8067 26.0537L97.8015 26.0381C97.7963 26.0174 97.7755 26.0071 97.7572 26.0096L97.7364 26.0148C97.7155 26.02 97.7051 26.0381 97.7103 26.0589V26.064C97.7181 26.0822 97.7051 26.1029 97.6869 26.1081L97.3977 26.1754C97.3769 26.1806 97.3587 26.1676 97.356 26.1469V26.1288C97.3482 26.1081 97.3326 26.1029 97.317 26.1158L97.1711 26.191C97.1711 26.2117 97.1555 26.2298 97.1346 26.235L96.5615 26.3438C96.5407 26.3464 96.5199 26.3334 96.5146 26.3153V26.3101C96.5068 26.2894 96.486 26.279 96.4678 26.2842H96.4573C96.4365 26.292 96.4235 26.3127 96.4261 26.3308V26.3412C96.4313 26.3619 96.4156 26.38 96.3974 26.3852L95.0741 26.6598C95.0532 26.6649 95.0402 26.6831 95.0428 26.7038V26.7193C95.048 26.7401 95.035 26.7608 95.0142 26.766L94.5192 26.8851C94.4984 26.8903 94.4984 26.8851 94.5192 26.8773L96.2568 25.9009C96.275 25.8905 96.3062 25.8827 96.3271 25.8827H96.4547C96.4756 25.8827 96.4912 25.8672 96.4912 25.8465V25.7429C96.4912 25.7221 96.5068 25.7014 96.5277 25.6962L96.7517 25.6367C96.7725 25.6315 96.7986 25.616 96.8116 25.6004L97.1503 25.2274C97.1633 25.2119 97.1919 25.2015 97.2128 25.2041L97.3378 25.2119C97.3586 25.2119 97.3743 25.1964 97.3743 25.1756V25.0669C97.3743 25.0461 97.3899 25.0228 97.4081 25.015L98.036 24.5695C98.0464 24.554 98.0724 24.5385 98.0933 24.5385H98.2105C98.2313 24.5385 98.247 24.5229 98.247 24.5022V24.3002C98.247 24.2795 98.2626 24.2561 98.2808 24.2458L98.9321 23.7096C98.9425 23.6941 98.9711 23.6785 98.9894 23.6785H99.1014C99.1222 23.6785 99.1509 23.6682 99.1665 23.6527L99.5052 23.1087C99.5208 23.0958 99.5494 23.0828 99.5703 23.0828L99.6953 23.088C99.7162 23.088 99.737 23.0751 99.7422 23.0543L99.9167 22.6814C99.9324 22.6684 99.9584 22.6555 99.9793 22.6555H100.003C100.024 22.6555 100.039 22.6399 100.039 22.6192L100.047 22.513C100.047 22.4923 100.065 22.469 100.083 22.4586L100.49 22.241C100.508 22.2307 100.524 22.2074 100.526 22.1866L100.537 22.0053C100.537 21.9846 100.555 21.9613 100.573 21.9535L100.891 21.824C100.907 21.8137 100.927 21.7878 100.935 21.7696L101.321 20.7932C101.329 20.775 101.326 20.7439 101.318 20.7258L101.258 20.6093C101.248 20.5911 101.258 20.5782 101.279 20.5808H101.3C101.321 20.586 101.339 20.5704 101.339 20.5497L101.352 20.371C101.352 20.3503 101.368 20.3347 101.389 20.3347H101.402C101.422 20.3347 101.451 20.3244 101.467 20.3088L101.558 19.8296C101.574 19.8167 101.602 19.8063 101.623 19.8089H101.644C101.665 19.8089 101.686 19.796 101.693 19.7752L101.977 18.2911C101.982 18.2704 101.969 18.2523 101.949 18.2497H101.925C101.904 18.2445 101.889 18.2238 101.889 18.2056L101.912 17.6669C101.912 17.6462 101.897 17.6306 101.878 17.6306H101.857C101.837 17.6306 101.829 17.6177 101.839 17.5995L101.899 17.4856C101.91 17.4675 101.899 17.4545 101.881 17.4545H101.863C101.842 17.4545 101.826 17.439 101.824 17.4182L101.758 15.6958C101.758 15.6751 101.74 15.6596 101.719 15.6596H101.693C101.672 15.6596 101.657 15.644 101.657 15.6233L101.662 15.3487C101.662 15.328 101.646 15.3125 101.626 15.3125H101.61C101.589 15.3125 101.574 15.2969 101.574 15.2762L101.415 15.1338C101.409 15.1545 101.407 15.1519 101.407 15.1338V14.9524C101.407 14.9317 101.391 14.9084 101.373 14.8981L101.253 14.8411C101.235 14.8333 101.219 14.81 101.222 14.7919L101.232 14.5898C101.232 14.5691 101.222 14.5458 101.201 14.538L101.071 14.4759C101.053 14.4681 101.034 14.4448 101.029 14.4241L100.959 14.1521C100.954 14.1314 100.933 14.1133 100.912 14.1107L100.612 13.603C100.602 13.5849 100.584 13.559 100.571 13.5434L100.057 13.0487C100.047 13.0306 100.039 12.9995 100.039 12.9788V12.8804C100.039 12.8596 100.024 12.8389 100.005 12.8312L99.6797 12.5074C99.6745 12.4893 99.6536 12.4633 99.638 12.453L99.2395 12.3054C99.2212 12.295 99.2004 12.2717 99.19 12.2536L98.6716 11.8469C98.6507 11.8417 98.6351 11.8184 98.6351 11.8003V11.6915C98.6351 11.6708 98.6195 11.6552 98.5986 11.6552H98.4866C98.4658 11.6552 98.4527 11.6397 98.4554 11.619L98.4658 11.5128C98.4658 11.4921 98.4527 11.4662 98.4371 11.4506L97.6504 10.9093C97.6348 10.8963 97.6166 10.8704 97.6087 10.8523L97.5488 10.7332C97.5358 10.7176 97.5384 10.715 97.5488 10.7332L97.4967 10.7513C97.5071 10.7694 97.5097 10.7668 97.4967 10.7513L97.4498 10.6399C97.442 10.6218 97.4212 10.6062 97.4003 10.6037H97.2675C97.2466 10.6037 97.2232 10.5881 97.2154 10.57L97.1607 10.4534C97.1529 10.4353 97.1294 10.4197 97.1086 10.4197L96.9002 10.4146C96.8793 10.4146 96.8559 10.399 96.8481 10.3809L96.7856 10.2773C96.7751 10.2618 96.7465 10.2462 96.7283 10.2436L96.5173 10.2307C96.4964 10.2307 96.4834 10.2151 96.4834 10.1944V10.1763C96.4886 10.1556 96.473 10.1348 96.4547 10.1297L96.1473 10.052C96.1265 10.0468 96.1109 10.0261 96.1109 10.0053V9.99497C96.1109 9.97425 96.0952 9.95871 96.0744 9.95612L95.8608 9.95094C95.84 9.95094 95.8165 9.93281 95.8087 9.91468L95.7462 9.80071C95.7358 9.78258 95.7123 9.76963 95.6915 9.76704H95.4987C95.4779 9.76445 95.4622 9.74632 95.4622 9.72819V9.71006C95.4622 9.68934 95.4466 9.6738 95.4258 9.6738H95.2981C95.2773 9.6738 95.2643 9.65826 95.2643 9.63754V9.62459C95.2669 9.60387 95.2538 9.58574 95.233 9.58315L95.022 9.56242C95.0012 9.56242 94.9855 9.54688 94.9855 9.52616C94.9855 9.50285 94.9699 9.48472 94.949 9.48472H94.8344C94.8136 9.48472 94.798 9.46659 94.798 9.44587V9.42514C94.798 9.40442 94.7823 9.38889 94.7615 9.38889H94.5531C94.5322 9.38889 94.5088 9.37594 94.4958 9.35781L94.4359 9.23866C94.4255 9.22052 94.402 9.20499 94.3812 9.20499H94.0894C94.0686 9.2024 94.0529 9.18426 94.0529 9.16613V9.15059C94.0529 9.12987 94.0373 9.11692 94.0165 9.11951L93.6101 9.17909C93.5892 9.18168 93.5736 9.16873 93.5736 9.14801V9.12988C93.5736 9.10915 93.558 9.09361 93.5372 9.09361H93.1282C93.1073 9.09361 93.0917 9.07548 93.0917 9.05476V9.03145C93.0917 9.01073 93.0761 8.99259 93.0552 8.98741L92.094 8.80093C92.0731 8.79575 92.0549 8.8087 92.0497 8.82942C92.0497 8.82942 92.0315 8.90195 91.8726 8.87086C91.7293 8.84237 91.7553 8.80611 91.7553 8.80611C91.7658 8.79057 91.7762 8.79316 91.7762 8.81388V8.8346C91.7762 8.85532 91.7606 8.86568 91.7397 8.8605L90.7394 8.74913C90.7186 8.74913 90.7029 8.76208 90.7029 8.7828V8.80093C90.7029 8.82165 90.6873 8.83719 90.6665 8.83719H90.6612C90.6404 8.83719 90.617 8.82424 90.6066 8.80611L90.5597 8.69992C90.5519 8.68178 90.5284 8.66624 90.5076 8.66624L90.0048 8.64293C89.984 8.64293 89.9657 8.65588 89.9631 8.67661L89.9579 8.70509C89.9579 8.72581 89.9371 8.74136 89.9162 8.74136L89.5203 8.731C89.4994 8.731 89.4838 8.74654 89.4838 8.76726V8.77503C89.4838 8.79575 89.4682 8.81129 89.4473 8.8087H89.4239C89.403 8.8087 89.3874 8.78798 89.3874 8.76985V8.75172C89.3874 8.731 89.3718 8.71804 89.351 8.72063L88.5538 8.86827C88.533 8.87086 88.5174 8.89159 88.5174 8.91231V8.92266C88.5174 8.94338 88.5017 8.96411 88.4809 8.96929L87.676 9.25938C87.6629 9.27492 87.6525 9.30082 87.6525 9.31895C87.6525 9.33708 87.6473 9.35521 87.6395 9.36039C87.6317 9.36557 87.59 9.37334 87.5691 9.37852L87.1263 9.71265C87.1263 9.73337 87.1133 9.76186 87.1002 9.7774L86.9283 9.90172C86.9101 9.90949 86.8814 9.92763 86.8684 9.94317L86.5845 10.3291C86.5767 10.3472 86.5636 10.3783 86.5584 10.3964L86.4829 10.6969C86.4803 10.7176 86.4672 10.7461 86.4542 10.7642L86.3292 11.0129C86.3188 11.031 86.3083 11.0595 86.3031 11.0802L86.238 11.2952C86.238 11.3159 86.225 11.347 86.2172 11.3651L86.2562 12.194C86.2641 12.2121 86.2719 12.2458 86.2745 12.2639C86.2745 12.2639 86.324 12.5644 86.4151 12.6654C86.548 12.8156 86.5923 13.0176 86.7564 13.1135C86.8892 13.186 87.0117 13.3025 87.0117 13.3025C87.0273 13.3155 87.0507 13.3388 87.0638 13.3544C87.0638 13.3544 87.2644 13.5616 87.4024 13.6729C87.7228 13.9423 87.926 13.9604 88.3011 14.0666C88.7153 14.178 89.2207 14.1832 89.6896 14.2194C90.1559 14.2505 90.729 13.9578 90.729 13.9578C90.7472 13.9475 90.7785 13.9345 90.7967 13.9294L91.1302 13.7714C91.1484 13.7636 91.1797 13.7532 91.1979 13.7455L91.6043 13.6211C91.6251 13.6211 91.6564 13.6289 91.6772 13.6341L91.9846 13.7014C92.0028 13.7092 92.0367 13.7092 92.0549 13.7066L92.3571 13.6315C92.3779 13.6263 92.4066 13.6315 92.4248 13.6393L92.813 13.7947C92.8338 13.7999 92.8468 13.8206 92.8416 13.8413L93.1698 13.9967C93.1907 13.9967 93.2141 14.0097 93.2246 14.0278L93.2897 14.1443C93.2975 14.1625 93.3209 14.1806 93.3392 14.1858L93.7508 14.2687C93.7716 14.2713 93.7846 14.292 93.782 14.3127V14.3256C93.7768 14.3464 93.7924 14.3619 93.8133 14.3645H93.8419C93.8628 14.3645 93.8784 14.3852 93.8758 14.4033L94.1076 14.6339C94.1285 14.6339 94.1597 14.6416 94.178 14.6494L94.4046 14.8255C94.4229 14.8333 94.4541 14.8463 94.4723 14.8566L95.048 15.0742C95.0663 15.082 95.0975 15.0897 95.1184 15.0897C95.1184 15.0897 95.259 15.2503 95.2799 15.2503H95.2981C95.319 15.2503 95.3268 15.2659 95.319 15.2814L95.4909 15.5119C95.5091 15.5197 95.5248 15.5404 95.5248 15.5611V15.6621C95.5248 15.6829 95.5117 15.7088 95.4961 15.7191C95.4805 15.7295 95.5638 15.745 95.5821 15.7528L95.8478 15.9445C95.866 15.9522 95.8973 15.96 95.9181 15.96H95.9363C95.9572 15.96 95.9702 15.9756 95.9676 15.9963L96.2411 17.0064C96.2437 17.0271 96.2489 17.0608 96.2515 17.0789L96.3141 17.5529C96.3141 17.5736 96.3245 17.6021 96.3349 17.6177C96.3427 17.6332 96.4339 17.7187 96.4287 17.7368L96.3297 18.3481C96.3219 18.3662 96.3193 18.3999 96.3245 18.418L96.4365 18.5294C96.4365 18.5501 96.4469 18.5812 96.4573 18.5993L96.4782 18.8014C96.486 18.8195 96.4782 18.835 96.4599 18.835C96.4417 18.835 96.4287 18.8506 96.4287 18.8713L96.5667 19.1847C96.5876 19.1847 96.6006 19.2002 96.598 19.221C96.598 19.221 96.6605 19.4748 96.6214 19.8763C96.5928 20.1715 96.4651 20.6455 96.4573 20.6455H96.4521C96.4313 20.6455 96.2776 20.8579 96.2776 20.8579C96.2776 20.8786 96.262 20.8942 96.2411 20.8916H96.2151C96.1942 20.889 96.1786 20.9019 96.176 20.9227L96.1708 21.1169C96.1708 21.1376 96.1525 21.1532 96.1317 21.1532H96.1135C96.0926 21.1532 96.077 21.1687 96.077 21.1894V21.2931C96.077 21.3138 96.0614 21.3293 96.0405 21.3267H96.0093C95.9884 21.3241 95.9702 21.3371 95.965 21.3578L95.866 21.8085C95.8634 21.8292 95.8452 21.8525 95.8243 21.8603L95.7045 21.9224C95.6863 21.9302 95.6706 21.9535 95.6706 21.9743V22.0649C95.6706 22.0856 95.655 22.1089 95.6368 22.1167L95.4987 22.1815C95.4805 22.1892 95.4622 22.2125 95.457 22.2333L95.3737 22.5855C95.3685 22.6062 95.3502 22.627 95.332 22.6373L95.1939 22.6917C95.1757 22.6995 95.1601 22.7202 95.1601 22.7409V22.9274C95.1601 22.9481 95.147 22.974 95.1288 22.9844L94.6938 23.2874C94.6781 23.2978 94.6547 23.3237 94.6469 23.3418L94.191 23.9609C94.1806 23.9764 94.1545 23.9919 94.1337 23.9945L93.7065 24.396C93.6908 24.409 93.6622 24.4219 93.6413 24.4219L93.5267 24.4141C93.5059 24.4141 93.4746 24.4193 93.4564 24.4271L92.3936 25.3026C92.3753 25.3129 92.3441 25.3233 92.3258 25.3285L91.9221 25.4761C91.9038 25.4839 91.8882 25.5072 91.8882 25.5279V25.5357C91.8882 25.5564 91.8726 25.5771 91.8517 25.5823L90.2314 26.3023C90.2132 26.3101 90.1819 26.3153 90.1611 26.3153L90.0439 26.3049C90.023 26.3049 90.0074 26.3049 90.0074 26.3153C90.0074 26.3231 89.9918 26.3231 89.9735 26.3153H89.9709C89.9527 26.3049 89.9214 26.3075 89.9032 26.3153L89.4812 26.4422C89.463 26.45 89.4317 26.4655 89.4161 26.4733L89.0905 26.5251C89.0696 26.5303 89.0383 26.5406 89.0201 26.5484L88.1553 26.9499C88.1344 26.955 88.1058 26.968 88.0901 26.9809L87.6395 27.2141C87.6212 27.2244 87.59 27.2296 87.5691 27.227C87.5691 27.227 87.1211 27.183 86.8945 27.3021C86.7616 27.3669 86.5949 27.5611 86.5949 27.5611C86.5819 27.5767 86.5584 27.6 86.5428 27.6129L86.3604 27.7865C86.3448 27.7994 86.3188 27.8175 86.3005 27.8305L85.9827 28.1102C85.9671 28.1206 85.9436 28.1439 85.9306 28.162L85.7691 28.377C85.7587 28.3926 85.7431 28.4236 85.7352 28.4418L85.5425 28.7189C85.5347 28.737 85.5138 28.7629 85.5008 28.7785L85.2221 29.1981C85.2143 29.2162 85.1986 29.2447 85.1882 29.2628C85.1882 29.2628 85.0814 29.4493 85.0527 29.5452C85.0058 29.7135 84.9876 30.0036 84.9876 30.0036C84.9876 30.0243 84.9876 30.058 84.9876 30.0761L85.0137 30.646C85.0163 30.6667 85.0032 30.69 84.9876 30.7003C84.9876 30.7003 84.9485 30.7211 85.0059 30.9464C85.0527 31.1174 85.1361 31.0707 85.1752 31.2572C85.1908 31.3375 85.2403 31.4385 85.3002 31.5344C85.3862 31.6794 85.5321 31.9954 85.5321 31.9954C85.5399 32.0135 85.5607 32.0368 85.5789 32.0498L85.7691 32.156C85.7873 32.1638 85.816 32.1793 85.8342 32.1897L86.0218 32.3062C86.0374 32.3192 86.0661 32.3347 86.0843 32.3425C86.0843 32.3425 86.4282 32.4979 86.6183 32.573C86.7616 32.6274 86.9361 32.6921 87.1029 32.674C87.2071 32.6611 87.4155 32.7828 87.4155 32.7828C87.4337 32.7932 87.465 32.8009 87.4832 32.8035L88.0276 32.7673C88.0485 32.7621 88.0797 32.7543 88.098 32.7491L88.5356 32.5911C88.5538 32.586 88.5825 32.5678 88.5981 32.5549L88.7336 32.4461C88.7466 32.4305 88.7753 32.415 88.7961 32.4124L89.4734 32.1638C89.4916 32.156 89.5203 32.1405 89.5359 32.1275L89.7365 31.9721C89.7521 31.9617 89.7808 31.9436 89.8016 31.9358C89.8016 31.9358 90.6873 31.5758 90.8879 31.5292C91.1692 31.4696 92.219 31.3194 92.219 31.3194C92.2399 31.3168 92.2711 31.309 92.292 31.3064L92.7036 31.2132C92.7218 31.208 92.7531 31.1951 92.7713 31.1847C92.7713 31.1847 93.4043 30.8117 93.6492 30.7314C93.98 30.6123 94.3317 30.677 94.6677 30.5553C95.371 30.3144 96.3714 29.5193 96.3714 29.5193C96.387 29.5063 96.4157 29.4959 96.4365 29.4959L96.684 29.4752C96.7048 29.4752 96.7152 29.4545 96.7074 29.4364L96.7022 29.4182C96.6944 29.4001 96.7048 29.382 96.7256 29.3768L96.9314 29.3328C96.9523 29.3276 96.9653 29.3069 96.9627 29.2861V29.2784C96.9601 29.2577 96.9731 29.2421 96.994 29.2421L97.3092 29.2473C97.33 29.2473 97.3404 29.2318 97.3352 29.2136L97.3274 29.1903C97.3222 29.1696 97.3326 29.1489 97.3508 29.1437L98.1844 28.9002C98.2027 28.8924 98.2365 28.8847 98.2548 28.8795L98.8044 28.7526C98.8253 28.7474 98.8565 28.7396 98.8748 28.7319L99.2577 28.6024C99.2733 28.5894 99.2968 28.5894 99.3124 28.6024L99.414 28.6956C99.4296 28.7086 99.4583 28.7163 99.4765 28.7137L100.597 28.4729C100.617 28.4677 100.623 28.478 100.61 28.4936L100.563 28.3822C100.545 28.3926 100.545 28.39 100.563 28.3796L100.659 28.289C100.68 28.2838 100.698 28.2967 100.703 28.3174V28.3226C100.709 28.3433 100.727 28.3563 100.748 28.3537L100.964 28.3174C100.985 28.3149 101.006 28.3278 101.008 28.3459L101.034 28.434C101.039 28.4521 101.06 28.4677 101.081 28.4651L101.407 28.4081C101.428 28.4055 101.438 28.3848 101.433 28.3667L101.402 28.2708C101.396 28.2501 101.407 28.232 101.428 28.2294L102.657 27.9833C102.675 27.9756 102.683 27.9833 102.673 28.004L102.647 28.0455C102.636 28.0636 102.647 28.074 102.665 28.0714L102.936 28.0507C102.949 28.0351 102.978 28.0274 102.998 28.0299L103.053 27.9522C103.074 27.9574 103.084 27.9445 103.079 27.9237L103.553 27.7683C103.532 27.7683 103.527 27.7839 103.543 27.7968L103.587 27.8098C103.603 27.7994 103.624 27.802 103.629 27.8176C103.634 27.8331 103.655 27.8409 103.676 27.8357L103.783 27.7968C103.803 27.7917 103.829 27.7994 103.842 27.815C103.842 27.815 103.871 27.8331 103.871 27.8486C103.871 27.8642 103.884 27.8745 103.905 27.8719L105.809 27.5922C105.83 27.5896 105.861 27.5844 105.882 27.5793L105.965 27.5016C105.986 27.4964 106.015 27.4834 106.031 27.4705L106.414 27.3306C106.429 27.3202 106.45 27.3254 106.455 27.3436L106.463 27.3643C106.471 27.3824 106.492 27.3954 106.513 27.3928L107.39 27.2115C107.411 27.2089 107.432 27.2192 107.443 27.2374L107.448 27.2503C107.456 27.2684 107.476 27.2736 107.492 27.2607L107.922 26.9499C107.937 26.9369 107.958 26.9421 107.966 26.9602L107.974 26.9758C107.982 26.9939 108.003 27.0017 108.021 26.9939L108.214 26.9084C108.232 26.9006 108.258 26.9084 108.268 26.9266L108.276 26.9369C108.287 26.9525 108.313 26.9628 108.331 26.955L109.201 26.6624C109.219 26.6546 109.243 26.6649 109.25 26.6831L109.258 26.6986C109.266 26.7168 109.287 26.7245 109.308 26.7168L109.425 26.6649C109.443 26.6572 109.464 26.6649 109.474 26.6831V26.6908C109.485 26.709 109.506 26.7168 109.527 26.709L109.896 26.5432C109.915 26.5354 109.935 26.5432 109.943 26.5639L109.949 26.5795C109.956 26.5976 109.977 26.608 109.995 26.5976L110.277 26.4655C110.295 26.4577 110.324 26.4603 110.339 26.4733C110.355 26.4862 110.399 26.5354 110.397 26.5536L110.352 26.8022C110.35 26.8229 110.342 26.854 110.337 26.8748L109.698 28.9727C109.693 28.9909 109.685 29.0245 109.685 29.0453L109.576 30.0399C109.576 30.0606 109.555 30.0761 109.534 30.0761H109.513C109.493 30.0761 109.477 30.0943 109.477 30.1124V30.2134C109.477 30.2341 109.461 30.2497 109.443 30.2497H109.412C109.391 30.2497 109.373 30.2678 109.373 30.2859L109.261 31.8452C109.261 31.8659 109.243 31.8866 109.224 31.8944L109.091 31.9462C109.073 31.954 109.06 31.9747 109.065 31.9954L109.144 32.3347C109.149 32.3554 109.136 32.371 109.115 32.3684H109.094C109.073 32.3684 109.058 32.3839 109.055 32.4046L109.042 33.0755C109.042 33.0962 109.024 33.1117 109.006 33.1117H108.985C108.964 33.1117 108.946 33.1299 108.943 33.148L108.93 33.3112C108.93 33.3319 108.914 33.3474 108.894 33.3474H108.878C108.857 33.3474 108.849 33.363 108.86 33.3811L108.987 33.9872C109 34.0027 108.995 34.0157 108.974 34.0157H108.959C108.938 34.0157 108.922 34.0312 108.92 34.052L108.909 34.469C108.909 34.4897 108.893 34.5052 108.873 34.5052H108.854C108.834 34.5052 108.818 34.5234 108.815 34.5415L108.795 35.2823C108.795 35.303 108.776 35.3185 108.758 35.3159H108.742C108.722 35.3159 108.706 35.3315 108.703 35.3496L108.654 36.6343C108.654 36.655 108.646 36.6835 108.636 36.6965C108.628 36.7094 108.586 36.8648 108.602 36.8804L108.61 37.3777C108.591 37.3854 108.565 37.4062 108.55 37.4217L108.607 37.4113C108.591 37.4217 108.573 37.4476 108.57 37.4683V37.4761C108.565 37.4968 108.581 37.5149 108.599 37.5175H108.625C108.646 37.5253 108.654 37.5408 108.646 37.559L108.534 38.0666C108.555 38.0666 108.568 38.0848 108.565 38.1055L108.492 38.5199C108.492 38.5406 108.5 38.5691 108.511 38.5847C108.511 38.5847 108.638 38.7556 108.641 38.8385C108.643 39.0302 108.529 39.0975 108.662 39.1415C108.727 39.1623 109.037 39.1623 109.037 39.1623C109.058 39.1623 109.081 39.1467 109.089 39.1286L109.261 38.7219C109.269 38.7038 109.292 38.6908 109.313 38.6934H109.336C109.357 38.6986 109.375 38.6831 109.381 38.665L109.388 38.5665C109.394 38.5458 109.412 38.5354 109.433 38.538L109.454 38.5432C109.474 38.5484 109.493 38.5354 109.493 38.5147L109.527 38.3308C109.532 38.3101 109.553 38.2997 109.571 38.3023H109.586C109.607 38.3101 109.628 38.2972 109.633 38.279L109.646 38.1858C109.649 38.1651 109.667 38.1547 109.688 38.1573L109.709 38.1625C109.73 38.1677 109.748 38.1547 109.751 38.134L109.782 37.9656C109.784 37.9449 109.803 37.9319 109.823 37.9345H109.847C109.868 37.9397 109.891 37.9268 109.902 37.9086L110.034 37.5875C110.045 37.5693 110.071 37.559 110.092 37.5616H110.113C110.133 37.5667 110.154 37.5512 110.157 37.5331L110.17 37.4424C110.17 37.4217 110.191 37.4087 110.209 37.4087H110.232C110.253 37.4139 110.264 37.3984 110.256 37.3803L110.225 37.2041C110.217 37.186 110.227 37.173 110.248 37.1756H110.264C110.285 37.1808 110.3 37.1679 110.303 37.1471L110.331 36.8933C110.331 36.8726 110.352 36.8519 110.371 36.8441L110.472 36.4867C110.47 36.4659 110.475 36.4375 110.488 36.4193L110.753 35.7847C110.761 35.7666 110.785 35.7485 110.806 35.7433L110.918 35.3444C110.897 35.3392 110.899 35.3367 110.918 35.3367H111.022C111.043 35.3367 111.061 35.3237 111.063 35.303L111.071 35.2071C111.071 35.1864 111.087 35.1657 111.105 35.1579L111.228 35.1113C111.246 35.1035 111.261 35.0802 111.261 35.0621L111.272 34.7228C111.272 34.7021 111.29 34.6865 111.311 34.6865H111.334C111.355 34.6865 111.371 34.6684 111.371 34.6503V34.5622C111.371 34.5415 111.386 34.526 111.407 34.5285H111.431C111.452 34.5285 111.472 34.5156 111.48 34.4975L111.556 34.3239C111.564 34.3058 111.587 34.2902 111.608 34.2902H111.717C111.738 34.2902 111.754 34.2721 111.754 34.2514L111.767 34.083C111.767 34.0623 111.756 34.0442 111.736 34.0416L111.712 34.0364C111.691 34.0338 111.676 34.0131 111.676 33.9924V33.9846C111.676 33.9639 111.691 33.9484 111.712 33.9509L111.923 33.9561C111.944 33.9561 111.962 33.9406 111.965 33.9225L112.064 33.2516C112.066 33.2309 112.085 33.2205 112.105 33.2231C112.105 33.2231 112.259 33.1584 112.262 33.148C112.262 33.1376 112.283 33.1299 112.303 33.1325H112.324C112.345 33.1376 112.363 33.1221 112.369 33.1014L112.441 32.6766C112.444 32.6559 112.465 32.6403 112.486 32.6403H112.522C112.543 32.6403 112.561 32.6222 112.564 32.6041L112.569 32.516C112.572 32.4953 112.59 32.4746 112.608 32.4668L112.728 32.4176C112.746 32.4098 112.762 32.3891 112.762 32.3684V32.1068C112.757 32.0861 112.775 32.0731 112.793 32.0731H112.817C112.837 32.0783 112.856 32.0627 112.858 32.042V31.941C112.863 31.9203 112.882 31.9048 112.903 31.9048H112.916C112.936 31.9048 112.965 31.8944 112.983 31.884L113.338 31.5447C113.356 31.5344 113.377 31.5111 113.39 31.4929L113.796 30.374C113.804 30.3559 113.825 30.3351 113.843 30.33C113.843 30.33 113.96 30.2963 114.025 30.1668C114.051 30.115 114.213 29.9932 114.213 29.9932C114.228 29.9803 114.239 29.9544 114.234 29.9363L114.291 29.8586C114.288 29.8378 114.281 29.8068 114.278 29.786L114.252 29.4105C114.247 29.3897 114.252 29.3898 114.262 29.4079L114.32 29.5141C114.33 29.5322 114.343 29.5296 114.351 29.5141L114.403 29.2551C114.408 29.2369 114.429 29.2214 114.45 29.224H114.473C114.494 29.2292 114.51 29.2136 114.512 29.1929L114.518 29.0142C114.518 28.9935 114.533 28.9805 114.554 28.9831H114.58C114.601 28.9883 114.617 28.9753 114.617 28.9546L114.63 28.693C114.63 28.6723 114.65 28.6567 114.669 28.6567H114.679C114.7 28.6567 114.716 28.6412 114.718 28.6205L114.723 28.3641C114.723 28.3433 114.739 28.32 114.76 28.3123L114.875 28.2605C114.893 28.2527 114.911 28.232 114.911 28.2112L114.924 27.8771C114.924 27.8564 114.942 27.8409 114.963 27.8409H114.992C115.013 27.8409 115.028 27.8227 115.028 27.8046V27.7114C115.028 27.6906 115.044 27.6751 115.062 27.6751H115.078C115.099 27.6751 115.112 27.657 115.106 27.6388L115.073 27.2995C115.07 27.2788 115.083 27.2633 115.104 27.2633H115.119C115.14 27.2633 115.156 27.2451 115.156 27.227L115.161 27.1467C115.161 27.126 115.182 27.1104 115.2 27.1104H115.224C115.244 27.1104 115.26 27.0923 115.26 27.0716V26.9006C115.26 26.8799 115.273 26.8566 115.291 26.8463L115.419 26.7945C115.437 26.7867 115.453 26.766 115.455 26.7452L115.474 26.3982C115.474 26.3774 115.492 26.3645 115.513 26.3671H115.518C115.539 26.3723 115.554 26.3567 115.557 26.3386L115.565 26.1521C115.565 26.1314 115.58 26.1158 115.601 26.1158H115.625C115.646 26.1158 115.661 26.0977 115.661 26.0796V26.0019C115.661 25.9812 115.677 25.9656 115.695 25.9656H115.719C115.739 25.9656 115.75 25.9475 115.745 25.9294L115.677 25.7377C115.669 25.7196 115.682 25.704 115.703 25.7014H115.732C115.752 25.7014 115.768 25.6833 115.768 25.6652V25.5875C115.768 25.5667 115.781 25.5434 115.799 25.5357L115.922 25.4787C115.94 25.4709 115.956 25.4476 115.956 25.4269V25.2611C115.956 25.2404 115.969 25.2248 115.989 25.2274H116.018C116.039 25.2274 116.055 25.2145 116.057 25.1938L116.07 24.4452C116.07 24.4245 116.086 24.4012 116.104 24.3934L116.229 24.3364C116.247 24.3287 116.266 24.3054 116.268 24.2846L116.289 24.0671C116.289 24.0463 116.307 24.0256 116.325 24.0178L116.464 23.9661C116.482 23.9583 116.497 23.935 116.497 23.9142V23.6552C116.492 23.6345 116.508 23.6138 116.529 23.606L116.649 23.5568C116.667 23.5464 116.675 23.5257 116.664 23.5076L116.609 23.4066C116.599 23.3885 116.609 23.3755 116.628 23.3781H116.656C116.677 23.3807 116.693 23.3677 116.693 23.347V23.2512C116.693 23.2305 116.708 23.2149 116.727 23.2149H116.748C116.768 23.2149 116.784 23.1968 116.784 23.1787L116.792 22.9222C116.792 22.9015 116.81 22.886 116.831 22.886H116.849C116.87 22.886 116.886 22.8678 116.886 22.8497L116.893 22.7642C116.893 22.7435 116.914 22.728 116.935 22.728H116.945C116.966 22.728 116.977 22.7124 116.966 22.6943L116.927 22.4301C116.912 22.4172 116.914 22.399 116.932 22.3887L117.055 22.3291C117.073 22.3213 117.086 22.298 117.086 22.2773L117.071 22.0701C117.071 22.0494 117.084 22.0338 117.104 22.0338H117.12C117.141 22.0338 117.154 22.0183 117.149 21.9976L117.188 21.4096C117.18 21.3915 117.188 21.3759 117.211 21.3759H117.229C117.25 21.3759 117.268 21.3604 117.268 21.3397V21.2438C117.271 21.2231 117.289 21.1998 117.305 21.1894L117.526 21.0625C117.545 21.0522 117.56 21.0289 117.563 21.0081L117.67 20.1819C117.67 20.1612 117.691 20.1456 117.711 20.1456H117.735C117.756 20.1456 117.766 20.1301 117.758 20.112L117.698 19.941C117.691 19.9229 117.698 19.9125 117.719 19.9151L117.74 19.8037C117.758 19.8115 117.756 19.8193 117.737 19.8193H117.719C117.698 19.8193 117.683 19.8037 117.685 19.783L117.696 19.5214C117.696 19.5007 117.714 19.4851 117.735 19.4851H117.758C117.779 19.4851 117.795 19.4696 117.795 19.4489V19.3582C117.795 19.3375 117.808 19.3142 117.826 19.309L117.935 19.2572C117.954 19.2495 117.972 19.2261 117.974 19.208L118.008 18.3792C118.003 18.361 118.008 18.33 118.019 18.3118L118.271 18.0062C118.282 17.9881 118.29 17.957 118.287 17.9389L118.308 17.47C118.308 17.4493 118.29 17.426 118.271 17.4182L118.219 17.2214C118.212 17.2033 118.219 17.1903 118.243 17.1903H118.279C118.3 17.1955 118.318 17.18 118.324 17.1592L118.42 16.6516C118.425 16.6308 118.443 16.6153 118.464 16.6153H118.482C118.503 16.6153 118.519 16.5972 118.519 16.5765L118.527 16.2397C118.527 16.219 118.545 16.2035 118.566 16.2035H118.574C118.594 16.2035 118.602 16.1905 118.594 16.1724L118.563 16.0507C118.542 16.0455 118.532 16.0248 118.535 16.004L118.631 15.587C118.636 15.5663 118.657 15.5508 118.678 15.5508H118.701C118.722 15.5508 118.738 15.5326 118.738 15.5145L118.746 15.1778C118.746 15.1571 118.761 15.1338 118.779 15.1234L118.902 15.0768C118.92 15.069 118.944 15.0509 118.951 15.0302L119.563 13.1264C119.571 13.1083 119.574 13.1083 119.571 13.1264L119.54 13.2948C119.537 13.3155 119.537 13.3155 119.54 13.2948L119.733 12.2354C119.735 12.2147 119.754 12.194 119.774 12.1836L119.897 12.1266C119.915 12.1189 119.931 12.0956 119.931 12.0748V11.9919C119.931 11.9712 119.949 11.9557 119.967 11.9557H119.985C120.006 11.9557 120.004 11.865 119.985 11.8676H119.978L119.949 11.8832Z" fill="#231815"/>
</svg>
